# xmcd
#
# Track frame offsets: 
#        150
#        17282
#        32587
#
# Disc length: 615 seconds
#
# Revision: 4
# Processed by: cddbd v1.5.2PL0 Copyright (c) Steve Scherf et al.
# Submitted via: ExactAudioCopy v0.95b4
#
DISCID=12026503
DTITLE=Naked 'Round the Block - Around The World (la la la la la) The 
DTITLE=Jump-Rock Version
DYEAR=2000
DGENRE=Crossover
TTITLE0=Around The World (la la la la la) Radio Version
TTITLE1=Around The World (la la la la la) Short Radio Cut
TTITLE2=Skatin'
EXTD=
EXTT0=
EXTT1=
EXTT2=
PLAYORDER=
